<?xml version="1.0" encoding="iso-8859-1"?>
<!-- Generator: Adobe Illustrator 16.0.2, SVG Export Plug-In . SVG Version: 6.00 Build 0)  -->
<!DOCTYPE svg PUBLIC "-//W3C//DTD SVG 1.1//EN" "http://www.w3.org/Graphics/SVG/1.1/DTD/svg11.dtd">
<svg version="1.1" id="co_x5F_mobile" xmlns="http://www.w3.org/2000/svg" xmlns:xlink="http://www.w3.org/1999/xlink" x="0px"
	 y="0px" width="40px" height="40px" viewBox="0 0 40 40" style="enable-background:new 0 0 40 40;" xml:space="preserve">
<path fill="#FFFFFF" style="fill-rule:evenodd;clip-rule:evenodd;" d="M36.487,31.735L25.258,35.5c-0.884,0.297-1.719-0.591-1.369-1.455L24.7,32.04
	c0.126-0.31,0.358-0.527,0.676-0.632l7.863-2.59c0.457-0.153,0.752-0.562,0.752-1.044V8.096c0-0.748-0.738-1.28-1.448-1.043
	l-5.16,1.72c-0.942,0.314-1.841,0.314-2.783,0L15.384,5.7c-0.942-0.313-1.841-0.313-2.782,0L6.746,7.652
	C6.289,7.804,5.994,8.213,5.994,8.695v19.679c0,0.749,0.738,1.28,1.448,1.044l4.859-1.62c0.554-0.184,1.154,0.094,1.37,0.637
	l0.602,1.51c0.234,0.588-0.077,1.254-0.677,1.452L4.89,34.268c-1.419,0.474-2.896-0.591-2.896-2.086V6.822
	c0-0.963,0.59-1.782,1.504-2.087l9.104-3.034c0.941-0.314,1.84-0.314,2.782,0l9.216,3.071c0.941,0.314,1.841,0.314,2.783,0
	l7.712-2.57c1.418-0.472,2.896,0.592,2.896,2.087v25.359C37.991,30.611,37.401,31.43,36.487,31.735z M12.441,18.449
	c0-4.15,3.367-7.518,7.519-7.518s7.519,3.368,7.519,7.518c0,0.993-0.193,1.94-0.543,2.808l-6.43,14.387
	c-0.231,0.519-0.979,0.517-1.207-0.004l-6.315-14.383C12.635,20.389,12.441,19.442,12.441,18.449z M19.96,21.73
	c1.81,0,3.281-1.471,3.281-3.281c0-1.809-1.471-3.281-3.281-3.281s-3.281,1.472-3.281,3.281C16.679,20.259,18.151,21.73,19.96,21.73
	z"/>
</svg>
