<svg xmlns="http://www.w3.org/2000/svg" width="40" height="40" viewBox="0 0 40 40"><path fill="#FFF" d="M36.487 31.735L25.258 35.5c-.884.297-1.719-.591-1.369-1.455l.811-2.005c.126-.31.358-.527.676-.632l7.863-2.59c.457-.153.752-.562.752-1.044V8.096c0-.748-.738-1.28-1.448-1.043l-5.16 1.72a4.229 4.229 0 0 1-2.783 0L15.384 5.7a4.239 4.239 0 0 0-2.782 0L6.746 7.652a1.083 1.083 0 0 0-.752 1.043v19.679c0 .749.738 1.28 1.448 1.044l4.859-1.62a1.1 1.1 0 0 1 1.37.637l.602 1.51a1.102 1.102 0 0 1-.677 1.452L4.89 34.268c-1.419.474-2.896-.591-2.896-2.086V6.822c0-.963.59-1.782 1.504-2.087l9.104-3.034a4.226 4.226 0 0 1 2.782 0L24.6 4.772a4.229 4.229 0 0 0 2.783 0l7.712-2.57c1.418-.472 2.896.592 2.896 2.087v25.359a2.17 2.17 0 0 1-1.504 2.087zM12.441 18.449a7.52 7.52 0 1 1 14.495 2.808l-6.43 14.387a.662.662 0 0 1-1.207-.004l-6.315-14.383a7.509 7.509 0 0 1-.543-2.808zm7.519 3.281a3.284 3.284 0 0 0 3.281-3.281c0-1.809-1.471-3.281-3.281-3.281s-3.281 1.472-3.281 3.281a3.284 3.284 0 0 0 3.281 3.281z" fill-rule="evenodd" clip-rule="evenodd"/></svg>